<svg width="139" height="40" viewBox="0 0 139 40" fill="none" xmlns="http://www.w3.org/2000/svg">
<g clip-path="url(#clip0_353_654)">
<mask id="mask0_353_654" style="mask-type:luminance" maskUnits="userSpaceOnUse" x="0" y="0" width="91" height="41">
<path d="M91 0.000854492H0V40.0009H91V0.000854492Z" fill="white"/>
</mask>
<g mask="url(#mask0_353_654)">
<path d="M116.549 36.0447L123.082 24.5017L117.115 13.5685H124.346L126.393 17.9244C126.785 18.7084 127.134 19.7973 127.526 20.7121H127.831C128.223 19.7973 128.615 18.7955 129.05 17.9244L131.315 13.5685H137.936L132.013 24.5017L138.416 36.0447H131.141L128.876 31.2533C128.484 30.3821 128.005 29.1189 127.657 28.1171H127.352C126.916 29.1189 126.48 30.1207 125.958 31.1226L123.475 36.0447H116.549ZM75.7403 36.0444V13.5682H81.5335L81.4899 16.9222C82.666 14.8314 84.6261 13.3504 87.1961 13.3504C87.893 13.3504 89.0256 13.394 89.6789 13.5682V18.8822C89.0256 18.7081 88.3722 18.6644 87.6752 18.6644C83.755 18.6644 81.882 21.0166 81.882 26.5922V36.0444H75.7403ZM69.3553 36.4365C66.4805 36.4365 64.7817 35.6524 63.6055 33.9101C62.7344 32.6469 62.5166 31.3402 62.5166 28.3347V18.0985H59.2497V13.5683H62.5166V7.86212H68.6584V13.5683H72.7528V18.0985H68.6584V28.204C68.6584 30.6432 69.5731 31.6014 71.3154 31.6014C71.6203 31.6014 72.0124 31.558 72.7528 31.4707V36.0444C71.5766 36.3494 70.6621 36.4365 69.3553 36.4365ZM44.5068 36.4801C39.5412 36.4801 36.3179 34.2586 36.3179 29.8592C36.3179 23.1948 44.3326 22.5413 51.2148 21.8445V20.7119C51.2148 18.447 49.8644 17.1838 47.5995 17.1838C45.0296 17.1838 43.6356 18.447 43.5051 20.4507H37.1456C37.4506 15.6156 41.458 12.9586 47.6432 12.9586C50.9537 12.9586 53.3059 13.6556 55.0481 15.3108C56.834 17.0094 57.1825 18.926 57.1825 23.1077V28.2912C57.1825 31.4274 57.3567 34.1715 57.7922 36.0447H52.2604C52.0862 34.9994 51.9992 34.0846 51.9555 33.2135C50.0826 35.3043 48.2091 36.4801 44.5068 36.4801ZM46.162 32.2986C49.3853 32.2986 51.2148 30.5561 51.2148 26.5053V25.7649C46.9024 26.3312 42.7209 26.3748 42.7209 29.6852C42.7209 31.3838 44.1583 32.2986 46.162 32.2986ZM0 36.0444V13.5682H5.4013L5.35768 16.7044C6.70801 14.5266 9.45211 13.1762 12.4142 13.1762C15.594 13.1762 17.5541 14.1346 18.9044 16.7044C20.3854 14.1781 23.1295 13.1762 26.3528 13.1762C32.1026 13.1762 33.6707 16.7916 33.6707 22.3671V36.0445H27.529V22.3236C27.529 19.4487 26.5272 17.7935 24.2186 17.7935C21.3002 17.7935 19.9062 20.0586 19.9062 24.9807V36.0445H13.7645V22.3236C13.7645 19.4487 12.6756 17.7935 10.4107 17.7935C7.4486 17.7935 6.1419 20.0586 6.1419 24.9807V36.0445L0 36.0444ZM92.5385 0.000854492V40.0009H113.931V0.000854492H92.5385ZM109.552 16.3455L106.588 18.5317L103.284 13.8184L99.9796 18.5317L96.9661 16.3455L100.27 11.8745L95.0222 10.1731L96.3343 6.82017L101.389 8.52166V2.78708H105.129V8.52166L110.135 6.82017L111.447 10.1731L106.296 11.8745L109.552 16.3455Z" fill="#1F2937"/>
</g>
</g>
<g clip-path="url(#clip1_353_654)">
<mask id="mask1_353_654" style="mask-type:luminance" maskUnits="userSpaceOnUse" x="91" y="0" width="24" height="41">
<path d="M115 0.000854492H91V40.0009H115V0.000854492Z" fill="white"/>
</mask>
<g mask="url(#mask1_353_654)">
<path d="M116.549 36.0447L123.082 24.5017L117.115 13.5685H124.346L126.393 17.9243C126.785 18.7084 127.134 19.7973 127.526 20.7121H127.831C128.223 19.7973 128.615 18.7955 129.051 17.9243L131.315 13.5685H137.936L132.013 24.5017L138.416 36.0447H131.141L128.876 31.2533C128.484 30.3821 128.005 29.1189 127.657 28.1171H127.352C126.916 29.1189 126.48 30.1207 125.958 31.1226L123.475 36.0447H116.549ZM75.7403 36.0444V13.5682H81.5335L81.4899 16.9222C82.6661 14.8314 84.6261 13.3504 87.1961 13.3504C87.893 13.3504 89.0256 13.394 89.6789 13.5682V18.8822C89.0256 18.7081 88.3722 18.6644 87.6752 18.6644C83.755 18.6644 81.882 21.0166 81.882 26.5922V36.0444H75.7403ZM69.3553 36.4365C66.4805 36.4365 64.7817 35.6524 63.6055 33.9101C62.7344 32.6469 62.5166 31.3402 62.5166 28.3347V18.0985H59.2497V13.5683H62.5166V7.86212H68.6584V13.5683H72.7528V18.0985H68.6584V28.204C68.6584 30.6432 69.5731 31.6014 71.3154 31.6014C71.6203 31.6014 72.0124 31.558 72.7528 31.4707V36.0444C71.5766 36.3494 70.6621 36.4365 69.3553 36.4365ZM44.5068 36.4801C39.5412 36.4801 36.3179 34.2586 36.3179 29.8592C36.3179 23.1948 44.3326 22.5413 51.2148 21.8445V20.7119C51.2148 18.447 49.8644 17.1838 47.5995 17.1838C45.0296 17.1838 43.6356 18.447 43.5051 20.4507H37.1456C37.4506 15.6156 41.458 12.9586 47.6432 12.9586C50.9537 12.9586 53.3059 13.6556 55.0481 15.3108C56.834 17.0094 57.1825 18.926 57.1825 23.1077V28.2912C57.1825 31.4274 57.3567 34.1715 57.7922 36.0447H52.2604C52.0862 34.9994 51.9992 34.0846 51.9555 33.2135C50.0826 35.3043 48.2091 36.4801 44.5068 36.4801ZM46.162 32.2986C49.3853 32.2986 51.2148 30.5561 51.2148 26.5053V25.7649C46.9024 26.3312 42.7209 26.3748 42.7209 29.6852C42.7209 31.3838 44.1583 32.2986 46.162 32.2986ZM0 36.0444V13.5682H5.4013L5.3577 16.7044C6.708 14.5266 9.4521 13.1762 12.4142 13.1762C15.594 13.1762 17.5541 14.1346 18.9044 16.7044C20.3854 14.1781 23.1295 13.1762 26.3528 13.1762C32.1026 13.1762 33.6707 16.7916 33.6707 22.3671V36.0445H27.529V22.3236C27.529 19.4487 26.5272 17.7935 24.2186 17.7935C21.3002 17.7935 19.9062 20.0586 19.9062 24.9807V36.0445H13.7645V22.3236C13.7645 19.4487 12.6756 17.7935 10.4107 17.7935C7.4486 17.7935 6.1419 20.0586 6.1419 24.9807V36.0445L0 36.0444ZM92.5385 0.000854492V40.0009H113.931V0.000854492H92.5385ZM109.552 16.3455L106.588 18.5317L103.284 13.8184L99.9796 18.5317L96.9661 16.3455L100.27 11.8745L95.0222 10.1731L96.3343 6.82017L101.389 8.52166V2.78708H105.129V8.52166L110.135 6.82017L111.447 10.1731L106.296 11.8745L109.552 16.3455Z" fill="#1F2937"/>
</g>
</g>
<g clip-path="url(#clip2_353_654)">
<mask id="mask2_353_654" style="mask-type:luminance" maskUnits="userSpaceOnUse" x="115" y="0" width="24" height="41">
<path d="M139 0.000854492H115V40.0009H139V0.000854492Z" fill="white"/>
</mask>
<g mask="url(#mask2_353_654)">
<path d="M116.549 36.0447L123.082 24.5017L117.115 13.5685H124.346L126.393 17.9244C126.785 18.7084 127.134 19.7973 127.526 20.7121H127.83C128.223 19.7973 128.615 18.7955 129.051 17.9244L131.315 13.5685H137.936L132.013 24.5017L138.416 36.0447H131.141L128.876 31.2533C128.484 30.3821 128.005 29.1189 127.657 28.1171H127.352C126.916 29.1189 126.48 30.1207 125.958 31.1226L123.475 36.0447H116.549ZM75.7403 36.0444V13.5682H81.5335L81.4899 16.9222C82.666 14.8314 84.6261 13.3504 87.1961 13.3504C87.893 13.3504 89.0256 13.394 89.6789 13.5682V18.8822C89.0256 18.7081 88.3722 18.6644 87.6752 18.6644C83.755 18.6644 81.882 21.0166 81.882 26.5922V36.0444H75.7403ZM69.3553 36.4365C66.4805 36.4365 64.7817 35.6524 63.6055 33.9101C62.7344 32.6469 62.5166 31.3402 62.5166 28.3347V18.0985H59.2497V13.5683H62.5166V7.86212H68.6584V13.5683H72.7528V18.0985H68.6584V28.204C68.6584 30.6432 69.5731 31.6014 71.3154 31.6014C71.6203 31.6014 72.0124 31.558 72.7528 31.4707V36.0444C71.5766 36.3494 70.6622 36.4365 69.3553 36.4365ZM44.5068 36.4801C39.5412 36.4801 36.3179 34.2586 36.3179 29.8592C36.3179 23.1948 44.3326 22.5413 51.2148 21.8445V20.7119C51.2148 18.447 49.8644 17.1838 47.5995 17.1838C45.0296 17.1838 43.6356 18.447 43.5051 20.4507H37.1456C37.4506 15.6156 41.458 12.9586 47.6432 12.9586C50.9537 12.9586 53.3059 13.6556 55.0481 15.3108C56.834 17.0094 57.1825 18.926 57.1825 23.1077V28.2912C57.1825 31.4274 57.3567 34.1715 57.7922 36.0447H52.2604C52.0862 34.9994 51.9992 34.0846 51.9555 33.2135C50.0826 35.3043 48.2091 36.4801 44.5068 36.4801ZM46.162 32.2986C49.3853 32.2986 51.2148 30.5561 51.2148 26.5053V25.7649C46.9024 26.3312 42.7209 26.3748 42.7209 29.6852C42.7209 31.3838 44.1583 32.2986 46.162 32.2986ZM0 36.0444V13.5682H5.401L5.358 16.7044C6.708 14.5266 9.452 13.1762 12.414 13.1762C15.594 13.1762 17.5541 14.1346 18.9044 16.7044C20.3854 14.1781 23.1295 13.1762 26.3528 13.1762C32.1026 13.1762 33.6707 16.7916 33.6707 22.3671V36.0445H27.529V22.3236C27.529 19.4487 26.5272 17.7935 24.2186 17.7935C21.3002 17.7935 19.9062 20.0586 19.9062 24.9807V36.0445H13.764V22.3236C13.764 19.4487 12.676 17.7935 10.411 17.7935C7.449 17.7935 6.142 20.0586 6.142 24.9807V36.0445L0 36.0444ZM92.5385 0.000854492V40.0009H113.931V0.000854492H92.5385ZM109.552 16.3455L106.588 18.5317L103.284 13.8184L99.9796 18.5317L96.9661 16.3455L100.27 11.8745L95.0222 10.1731L96.3343 6.82017L101.389 8.52166V2.78708H105.129V8.52166L110.135 6.82017L111.447 10.1731L106.296 11.8745L109.552 16.3455Z" fill="#1F2937"/>
</g>
</g>
<defs>
<clipPath id="clip0_353_654">
<rect width="91" height="40" fill="white" transform="translate(0 0.000854492)"/>
</clipPath>
<clipPath id="clip1_353_654">
<rect width="24" height="40" fill="white" transform="translate(91 0.000854492)"/>
</clipPath>
<clipPath id="clip2_353_654">
<rect width="24" height="40" fill="white" transform="translate(115 0.000854492)"/>
</clipPath>
</defs>
</svg>
