<svg width="870" height="140" viewBox="0 0 870 140" fill="none" xmlns="http://www.w3.org/2000/svg">
<path d="M140 88.3718C140.002 82.3511 138.786 76.7077 136.352 71.4416C136.346 71.4235 136.338 71.3989 136.327 71.3677C136.321 71.361 136.312 71.3446 136.303 71.3184C132.974 64.2593 127.477 57.8602 119.813 52.1211C106.382 42.1133 90.2457 36.9956 71.4049 36.7682H68.669C62.3309 36.9624 56.8673 38.5643 52.2782 41.5737C47.9248 44.4844 45.6983 47.9674 45.5986 52.0225C45.6999 56.0757 47.9264 59.5504 52.2782 62.4467H52.3028C56.8968 65.5027 62.3851 67.121 68.7676 67.3015C68.8005 67.3009 68.8252 67.3009 68.8415 67.3015C68.8702 67.3015 68.8949 67.3015 68.9155 67.3015C69.2786 67.2842 69.6401 67.276 70 67.2769C70.382 67.2759 70.76 67.2841 71.1338 67.3015C71.1667 67.3005 71.1913 67.3005 71.2078 67.3015C78.9 67.4731 85.4892 69.4035 90.9753 73.0928C97.3064 77.2951 100.42 82.4046 100.317 88.4211C100.42 94.4375 97.3064 99.5469 90.9753 103.749C85.5416 107.395 79.0428 109.333 71.4789 109.565C71.455 109.566 71.4304 109.566 71.4049 109.565H68.5458C48.3359 109.31 31.033 103.766 16.6373 92.9308C10.2184 88.112 5.17376 82.8629 1.50354 77.1836C0.497727 80.7568 -0.00344825 84.4862 1.78551e-05 88.3718C0.0647185 102.514 6.79359 114.589 20.1866 124.598C33.9473 134.866 50.5517 140.001 70 140C89.4482 140.001 106.053 134.866 119.813 124.598C133.206 114.589 139.935 102.514 140 88.3718Z" fill="url(#paint0_linear_897_4913)"/>
<path d="M138.472 63.0628C139.493 59.4776 140.002 55.7318 140 51.8254C139.938 37.6327 133.209 25.5081 119.813 15.4515C106.053 5.15082 89.4482 0.00032088 70 0C50.5518 0.00032088 33.9473 5.15082 20.1866 15.4515C6.79101 25.5081 0.0621356 37.6327 2.42176e-06 51.8254C-0.00198738 57.8666 1.22219 63.5346 3.67254 68.8294C3.67908 68.8485 3.6873 68.8649 3.69718 68.8787L3.72183 68.9773C7.05007 76.0477 12.5383 82.455 20.1866 88.1992C33.6178 98.2555 49.7539 103.406 68.5951 103.651H71.3063C77.6604 103.455 83.124 101.845 87.6972 98.8206C92.0641 95.9251 94.2988 92.4586 94.4014 88.4211C94.2988 84.3834 92.0641 80.9169 87.6972 78.0215C83.0904 74.9723 77.5693 73.3705 71.1338 73.216H71.0845C71.064 73.2169 71.0394 73.2169 71.0105 73.216C70.994 73.2155 70.9694 73.2155 70.9366 73.216C70.6285 73.216 70.3163 73.216 70 73.216C69.7124 73.216 69.4249 73.216 69.1373 73.216H69.0387C68.9961 73.217 68.9468 73.217 68.8908 73.216H68.8415C68.8301 73.2157 68.8137 73.2157 68.7922 73.216C68.7784 73.2154 68.762 73.2154 68.743 73.216C61.0691 73.0194 54.4881 71.0644 49 67.3508V67.3755C42.6867 63.1739 39.5811 58.0563 39.6831 52.0225C39.5825 45.9908 42.6881 40.865 49 36.645C54.4506 33.017 60.9494 31.0866 68.4965 30.8537C68.5368 30.8533 68.5696 30.8533 68.5951 30.8537H71.4296C91.656 31.0928 108.967 36.6047 123.363 47.3895C129.774 52.1911 134.811 57.4155 138.472 63.0628Z" fill="url(#paint1_linear_897_4913)"/>
<path d="M858.239 39.011C865.771 39.011 870 43.8901 870 50.3517C870 55.6264 867.225 59.0549 863.525 59.1868C857.05 59.1868 857.314 52.3297 850.971 52.3297C846.214 52.3297 841.853 57.8681 841.853 67.4945V85.2967C841.853 97.5604 848.196 94.5275 848.196 100.33C848.196 102.967 846.082 103.626 842.382 103.626H823.486C819.786 103.626 817.407 102.835 817.407 100.198C817.407 94.5275 824.014 97.5604 824.014 85.2967V60.2418C824.014 56.5495 822.561 54.1758 819.918 52.1978C818.596 51.2747 817.407 50.3517 817.407 48.5055C817.407 46.3956 818.464 45.4725 821.636 44.022C826.525 41.6484 834.718 39.2747 836.832 39.1429C839.079 39.1429 840.003 40.4615 840.003 43.0989V50.8791C844.893 42.8352 851.896 39.011 858.239 39.011Z" fill="#111827"/>
<path d="M811.44 83.4506C814.083 80.8132 816.99 82.9231 815.669 86.7473C813.026 94.1319 802.058 104.945 784.483 104.945C765.718 104.945 753.033 92.022 753.033 73.956C753.033 53.6484 768.758 39.011 787.258 39.011C803.115 39.011 812.233 48.5055 814.083 59.8462C814.479 61.956 813.554 63.8022 811.044 64.989C797.565 71.055 786.861 75.1429 773.118 80.1539C775.893 86.2198 781.972 92.1539 792.147 92.1539C800.208 92.1539 806.683 88.0659 811.44 83.4506ZM781.444 47.7143C773.779 48.6374 769.683 55.8901 769.683 64.3297C769.683 67.2308 770.079 70.3956 770.74 72.6374C778.404 70 785.936 67.3626 793.072 64.3297C795.319 63.2747 797.036 62.3517 796.111 58.9231C794.261 51.2747 787.786 46.5275 781.444 47.7143Z" fill="#111827"/>
<path d="M722.836 39.011C737.768 39.011 749.661 50.6154 749.661 69.7363C749.661 93.0769 734.332 104.945 720.457 104.945C713.454 104.945 707.111 102.44 702.486 99.5385V111.67C702.486 123.934 708.961 120.901 708.961 126.703C708.961 129.341 706.714 130 703.146 130H684.25C680.418 130 678.171 129.209 678.171 126.703C678.171 120.901 684.646 123.934 684.646 111.67V59.978C684.646 56.2857 683.193 53.9121 680.55 52.0659C679.361 51.011 678.039 50.0879 678.039 48.2418C678.039 46.1319 679.096 45.2088 682.268 43.7582C687.289 41.5165 695.482 39.011 697.464 39.011C699.711 39.011 700.636 40.1978 700.636 42.967V50.6154C704.864 44.4176 711.868 39.011 722.836 39.011ZM719.268 96.7692C728.65 96.6374 732.35 86.6154 732.35 77.1209C732.35 61.4286 725.875 49.8242 716.229 49.8242C707.904 49.8242 702.486 57.8681 702.486 67.3626V67.7582L702.618 76.3297C702.75 89.2527 711.207 96.7692 719.268 96.7692Z" fill="#111827"/>
<path d="M671.625 42.967L671.493 61.033V83.978C671.493 93.6044 679.157 91.4945 679.157 95.3187C679.157 97.1648 677.836 98.6154 674.929 100.198C670.965 102.308 663.564 104.813 659.864 104.813C656.164 104.813 654.579 102.703 654.314 97.1648L654.182 93.6044C648.764 100.857 640.307 104.813 633.172 104.813C618.9 104.813 610.839 95.1868 610.839 78.3077V61.033C610.839 51.9341 604.496 52.8571 604.496 48.9011C604.496 47.1868 605.421 46.2637 608.593 44.8132C614.143 42.1758 623.657 39.011 625.772 39.011C627.886 39.011 628.811 40.1978 628.811 42.967L628.679 61.033V77.3846C628.679 87.4066 631.454 93.7363 639.382 93.6044C646.386 93.4725 653.654 86.0879 653.654 74.8791V61.033C653.654 51.9341 647.311 52.8571 647.311 48.9011C647.311 47.1868 648.236 46.2637 651.407 44.8132C656.957 42.1758 666.472 39.011 668.586 39.011C670.7 39.011 671.625 40.1978 671.625 42.967Z" fill="#111827"/>
<path d="M597.019 13.956L596.887 32.022L596.622 83.7143C596.622 93.4725 604.419 91.3626 604.419 95.1868C604.419 97.033 603.097 98.3517 600.058 100.066C596.226 102.044 588.694 104.681 584.994 104.681C581.294 104.681 579.84 102.44 579.444 96.9011L579.312 94.2637C575.083 100.33 568.212 105.209 557.904 104.813C542.444 104.549 531.476 92.5495 531.476 75.5385C531.476 52.7253 549.447 39.011 564.908 39.011C570.326 39.011 575.215 40.3297 578.915 42.4396V32.1538C578.915 23.0549 572.705 23.8462 572.705 19.8901C572.705 18.1758 573.63 17.2527 576.801 15.8022C582.351 13.1648 591.865 10 593.98 10C596.094 10 597.019 11.1868 597.019 13.956ZM565.701 93.4725C573.63 93.4725 578.122 86.8791 578.915 78.8352V70.9231C578.651 65.5165 577.858 60.1099 576.008 56.4176C573.233 50.3517 568.608 47.3187 562.794 47.3187C553.808 47.3187 548.522 55.2308 548.522 67.4945C548.522 83.7143 556.583 93.4725 565.701 93.4725Z" fill="#111827"/>
<path d="M521.594 39.011C529.126 39.011 533.355 43.8901 533.355 50.3517C533.355 55.6264 530.58 59.0549 526.88 59.1868C520.405 59.1868 520.669 52.3297 514.326 52.3297C509.569 52.3297 505.208 57.8681 505.208 67.4945V85.2967C505.208 97.5604 511.551 94.5275 511.551 100.33C511.551 102.967 509.437 103.626 505.737 103.626H486.84C483.14 103.626 480.762 102.835 480.762 100.198C480.762 94.5275 487.369 97.5604 487.369 85.2967V60.2418C487.369 56.5495 485.915 54.1758 483.272 52.1978C481.951 51.2747 480.762 50.3517 480.762 48.5055C480.762 46.3956 481.819 45.4725 484.99 44.022C489.88 41.6484 498.072 39.2747 500.187 39.1429C502.433 39.1429 503.358 40.4615 503.358 43.0989V50.8791C508.248 42.8352 515.251 39.011 521.594 39.011Z" fill="#111827"/>
<path d="M474.795 83.4506C477.438 80.8132 480.345 82.9231 479.023 86.7473C476.38 94.1319 465.412 104.945 447.837 104.945C429.073 104.945 416.387 92.022 416.387 73.956C416.387 53.6484 432.112 39.011 450.612 39.011C466.47 39.011 475.587 48.5055 477.437 59.8462C477.834 61.956 476.909 63.8022 474.398 64.989C460.92 71.055 450.216 75.1429 436.473 80.1539C439.248 86.2198 445.327 92.1539 455.502 92.1539C463.562 92.1539 470.037 88.0659 474.795 83.4506ZM444.798 47.7143C437.134 48.6374 433.037 55.8901 433.037 64.3297C433.037 67.2308 433.434 70.3956 434.095 72.6374C441.759 70 449.291 67.3626 456.427 64.3297C458.673 63.2747 460.391 62.3517 459.466 58.9231C457.616 51.2747 451.141 46.5275 444.798 47.7143Z" fill="#111827"/>
<path d="M386.191 39.011C401.123 39.011 413.016 50.6154 413.016 69.7363C413.016 93.0769 397.687 104.945 383.812 104.945C376.808 104.945 370.466 102.44 365.841 99.5385V111.67C365.841 123.934 372.316 120.901 372.316 126.703C372.316 129.341 370.069 130 366.501 130H347.605C343.773 130 341.526 129.209 341.526 126.703C341.526 120.901 348.001 123.934 348.001 111.67V59.978C348.001 56.2857 346.548 53.9121 343.905 52.0659C342.715 51.011 341.394 50.0879 341.394 48.2418C341.394 46.1319 342.451 45.2088 345.623 43.7582C350.644 41.5165 358.837 39.011 360.819 39.011C363.066 39.011 363.991 40.1978 363.991 42.967V50.6154C368.219 44.4176 375.223 39.011 386.191 39.011ZM382.623 96.7692C392.005 96.6374 395.705 86.6154 395.705 77.1209C395.705 61.4286 389.23 49.8242 379.583 49.8242C371.258 49.8242 365.841 57.8681 365.841 67.3626V67.7582L365.973 76.3297C366.105 89.2527 374.562 96.7692 382.623 96.7692Z" fill="#111827"/>
<path d="M334.98 42.967L334.848 61.033V83.978C334.848 93.6044 342.512 91.4945 342.512 95.3187C342.512 97.1648 341.191 98.6154 338.284 100.198C334.319 102.308 326.919 104.813 323.219 104.813C319.519 104.813 317.933 102.703 317.669 97.1648L317.537 93.6044C312.119 100.857 303.662 104.813 296.526 104.813C282.255 104.813 274.194 95.1868 274.194 78.3077V61.033C274.194 51.9341 267.851 52.8571 267.851 48.9011C267.851 47.1868 268.776 46.2637 271.948 44.8132C277.498 42.1758 287.012 39.011 289.126 39.011C291.241 39.011 292.166 40.1978 292.166 42.967L292.033 61.033V77.3846C292.033 87.4066 294.808 93.7363 302.737 93.6044C309.741 93.4725 317.008 86.0879 317.008 74.8791V61.033C317.008 51.9341 310.666 52.8571 310.666 48.9011C310.666 47.1868 311.591 46.2637 314.762 44.8132C320.312 42.1758 329.826 39.011 331.941 39.011C334.055 39.011 334.98 40.1978 334.98 42.967Z" fill="#111827"/>
<path d="M220.144 104.945C217.766 104.945 216.841 103.89 215.123 99.6703C212.877 94.2637 211.423 90.5714 210.234 86.0879C209.573 83.1868 210.366 81.7363 211.952 80.9451C213.802 80.022 215.916 81.4725 218.823 84.1099C227.412 92.5495 234.812 97.4286 242.609 97.4286C247.102 97.4286 250.273 94.9231 250.273 91.0989C250.273 86.3517 243.402 82.7912 231.905 77.9121C221.73 73.5604 212.084 68.4176 212.084 57.4725C212.084 44.8132 223.844 39.011 234.152 39.011C241.552 39.011 246.044 40.7253 249.877 40.8571C252.652 40.8571 253.048 39.011 255.427 39.011C257.541 39.011 258.466 40.4615 260.58 44.1538C262.298 47.4506 263.091 49.2967 264.28 52.0659C265.602 55.6264 265.073 57.4725 263.355 58.2637C260.845 59.5824 258.598 57.2088 254.37 54.1758C249.216 50.4835 242.477 46.6593 236.662 46.6593C231.244 46.6593 228.602 49.5604 228.602 52.7253C228.602 57.3407 234.152 60.1099 244.987 64.7253C258.995 70.9231 267.98 76.1978 267.98 85.6923C267.98 97.1648 257.012 104.945 243.137 104.945C232.698 104.945 228.073 102.308 225.298 102.308C223.316 102.308 222.655 104.945 220.144 104.945Z" fill="#111827"/>
<defs>
<linearGradient id="paint0_linear_897_4913" x1="70" y1="37.0001" x2="-2.93151e-06" y2="140" gradientUnits="userSpaceOnUse">
<stop stop-color="#0077FF"/>
<stop offset="1" stop-color="#00D0E7"/>
</linearGradient>
<linearGradient id="paint1_linear_897_4913" x1="140" y1="5.07215e-06" x2="70" y2="104" gradientUnits="userSpaceOnUse">
<stop stop-color="#DD1C9D"/>
<stop offset="1" stop-color="#FF54C6"/>
</linearGradient>
</defs>
</svg>
