<svg width="140" height="140" viewBox="0 0 140 140" fill="none" xmlns="http://www.w3.org/2000/svg">
<path d="M140 88.3718C140.002 82.3511 138.786 76.7077 136.352 71.4416C136.346 71.4235 136.338 71.3989 136.327 71.3677C136.321 71.361 136.312 71.3446 136.303 71.3184C132.974 64.2593 127.477 57.8602 119.813 52.1211C106.382 42.1133 90.2457 36.9956 71.4049 36.7682H68.669C62.3309 36.9624 56.8673 38.5643 52.2782 41.5737C47.9248 44.4844 45.6983 47.9674 45.5986 52.0225C45.6999 56.0757 47.9264 59.5504 52.2782 62.4467H52.3028C56.8968 65.5027 62.3851 67.121 68.7676 67.3015C68.8005 67.3009 68.8252 67.3009 68.8415 67.3015C68.8702 67.3015 68.8949 67.3015 68.9155 67.3015C69.2786 67.2842 69.6401 67.276 70 67.2769C70.382 67.2759 70.76 67.2841 71.1338 67.3015C71.1667 67.3005 71.1913 67.3005 71.2078 67.3015C78.9 67.4731 85.4892 69.4035 90.9753 73.0928C97.3064 77.2951 100.42 82.4046 100.317 88.4211C100.42 94.4375 97.3064 99.5469 90.9753 103.749C85.5416 107.395 79.0428 109.333 71.4789 109.565C71.455 109.566 71.4304 109.566 71.4049 109.565H68.5458C48.3359 109.31 31.033 103.766 16.6373 92.9308C10.2184 88.112 5.17376 82.8629 1.50354 77.1836C0.497727 80.7568 -0.00344825 84.4862 1.78551e-05 88.3718C0.0647185 102.514 6.79359 114.589 20.1866 124.598C33.9473 134.866 50.5517 140.001 70 140C89.4482 140.001 106.053 134.866 119.813 124.598C133.206 114.589 139.935 102.514 140 88.3718Z" fill="url(#paint0_linear_897_4914)"/>
<path d="M138.472 63.0628C139.493 59.4776 140.002 55.7318 140 51.8254C139.938 37.6327 133.209 25.5081 119.813 15.4515C106.053 5.15082 89.4482 0.00032088 70 0C50.5518 0.00032088 33.9473 5.15082 20.1866 15.4515C6.79101 25.5081 0.0621356 37.6327 2.42176e-06 51.8254C-0.00198738 57.8666 1.22219 63.5346 3.67254 68.8294C3.67908 68.8485 3.6873 68.8649 3.69718 68.8787L3.72183 68.9773C7.05007 76.0477 12.5383 82.455 20.1866 88.1992C33.6178 98.2555 49.7539 103.406 68.5951 103.651H71.3063C77.6604 103.455 83.124 101.845 87.6972 98.8206C92.0641 95.9251 94.2988 92.4586 94.4014 88.4211C94.2988 84.3834 92.0641 80.9169 87.6972 78.0215C83.0904 74.9723 77.5693 73.3705 71.1338 73.216H71.0845C71.064 73.2169 71.0394 73.2169 71.0105 73.216C70.994 73.2155 70.9694 73.2155 70.9366 73.216C70.6285 73.216 70.3163 73.216 70 73.216C69.7124 73.216 69.4249 73.216 69.1373 73.216H69.0387C68.9961 73.217 68.9468 73.217 68.8908 73.216H68.8415C68.8301 73.2157 68.8137 73.2157 68.7922 73.216C68.7784 73.2154 68.762 73.2154 68.743 73.216C61.0691 73.0194 54.4881 71.0644 49 67.3508V67.3755C42.6867 63.1739 39.5811 58.0563 39.6831 52.0225C39.5825 45.9908 42.6881 40.865 49 36.645C54.4506 33.017 60.9494 31.0866 68.4965 30.8537C68.5368 30.8533 68.5696 30.8533 68.5951 30.8537H71.4296C91.656 31.0928 108.967 36.6047 123.363 47.3895C129.774 52.1911 134.811 57.4155 138.472 63.0628Z" fill="url(#paint1_linear_897_4914)"/>
<defs>
<linearGradient id="paint0_linear_897_4914" x1="70" y1="37.0001" x2="-2.93151e-06" y2="140" gradientUnits="userSpaceOnUse">
<stop stop-color="#0077FF"/>
<stop offset="1" stop-color="#00D0E7"/>
</linearGradient>
<linearGradient id="paint1_linear_897_4914" x1="140" y1="5.07215e-06" x2="70" y2="104" gradientUnits="userSpaceOnUse">
<stop stop-color="#DD1C9D"/>
<stop offset="1" stop-color="#FF54C6"/>
</linearGradient>
</defs>
</svg>
